<svg xmlns="http://www.w3.org/2000/svg" viewBox="0 0 237.48 253.96"><defs><style>.cls-1{fill:#999;}</style></defs><g id="Layer_2" data-name="Layer 2"><g id="Layer_1-2" data-name="Layer 1"><path class="cls-1" d="M0,254a170.2,170.2,0,0,0,4.36-32c.49-16.48.49-68.82,31.5-81.42C53.8,132.31,60.58,130.37,69.3,127s18.91-8.24,18.91-8.24V98.39s-1-2.43-3.88-17.45c-10.66,0-5.82-14.06-5.33-22.29s3.39-7.27,3.39-7.27S79.48,17.94,91.6,10.67,104.68-.13,118.74,0c14-.13,15,3.4,27.14,10.67s9.21,40.71,9.21,40.71,2.9-1,3.39,7.27,5.33,22.29-5.33,22.29c-2.91,15-3.88,17.45-3.88,17.45v20.35s10.18,4.85,18.9,8.24,15.51,5.33,33.44,13.57c31,12.6,31,64.94,31.5,81.42a170.68,170.68,0,0,0,4.37,32Z"/></g></g></svg>